<?xml version="1.0" standalone="no"?>
<!DOCTYPE svg PUBLIC "-//W3C//DTD SVG 20010904//EN"
 "http://www.w3.org/TR/2001/REC-SVG-20010904/DTD/svg10.dtd">
<svg version="1.0" xmlns="http://www.w3.org/2000/svg"
 width="557.000000pt" height="557.000000pt" viewBox="0 0 557.000000 557.000000"
 preserveAspectRatio="xMidYMid meet">
<metadata>
Created by potrace 1.14, written by Peter Selinger 2001-2017
</metadata>
<g transform="translate(0.000000,557.000000) scale(0.100000,-0.100000)"
fill="#000000" stroke="none">
<path d="M634 5271 c-61 -37 -111 -139 -128 -261 -3 -19 -8 -48 -11 -63 -13
-64 -19 -324 -10 -462 14 -214 70 -385 142 -432 36 -24 105 -22 141 3 23 17
103 157 99 173 -1 5 11 76 29 166 10 51 12 416 3 495 -12 104 -28 187 -47 240
-48 136 -135 192 -218 141z m116 -231 c17 -23 44 -117 50 -170 0 -8 2 -94 3
-190 1 -217 -9 -309 -43 -382 -14 -30 -59 -53 -87 -44 -29 9 -60 73 -75 151
-13 73 -18 422 -6 485 15 77 20 96 35 128 31 64 86 74 123 22z"/>
<path d="M1517 5259 c-21 -17 -46 -48 -57 -69 -28 -55 -59 -172 -66 -254 -3
-39 -8 -80 -10 -91 -6 -31 -5 -303 1 -365 13 -129 15 -146 20 -175 11 -60 47
-161 71 -197 57 -88 139 -98 215 -28 43 39 89 184 105 330 10 86 10 409 1 485
-14 111 -16 122 -32 184 -49 188 -149 261 -248 180z m142 -242 c13 -28 28 -85
36 -139 12 -92 13 -375 1 -433 -3 -17 -8 -44 -11 -62 -19 -115 -85 -166 -140
-107 -41 44 -58 145 -61 364 -3 256 18 376 73 419 37 30 73 15 102 -42z"/>
<path d="M2315 5270 l-40 -5 -1 -102 c-1 -69 2 -103 10 -104 6 -1 34 -2 61 -3
l50 -1 0 -500 0 -500 48 -5 47 -6 0 51 c1 27 2 255 3 505 l2 455 57 -1 c67 0
64 -5 63 121 l0 90 -130 5 c-71 3 -148 3 -170 0z"/>
<path d="M3639 5255 c-5 -110 -1 -137 25 -164 l26 -28 1 -402 0 -402 -28 -32
c-26 -29 -28 -39 -27 -100 1 -38 4 -70 6 -72 4 -4 116 -8 173 -6 l30 1 -1 75
c-1 64 -5 78 -28 105 -22 27 -26 41 -26 96 0 35 -1 174 -1 309 0 465 -2 418
29 457 24 31 27 43 26 99 -1 35 -3 67 -3 71 -1 4 -46 8 -101 10 -94 3 -100 2
-101 -17z"/>
<path d="M4483 5271 c-10 -7 -11 -15 -18 -83 -3 -29 -7 -64 -10 -78 -2 -14 -7
-47 -10 -75 -3 -27 -7 -59 -9 -70 -2 -11 -7 -47 -10 -80 -4 -33 -9 -71 -11
-85 -10 -63 -25 -180 -30 -230 -2 -19 -6 -53 -9 -75 -3 -22 -8 -58 -11 -80
-17 -128 -27 -203 -30 -225 -2 -14 -7 -50 -10 -81 l-7 -57 42 -4 c53 -5 61 1
65 48 2 22 9 85 16 142 l12 102 83 0 84 0 1 -27 c0 -16 2 -37 4 -48 4 -20 15
-123 19 -180 2 -28 6 -30 50 -36 26 -3 49 -2 52 3 3 4 2 28 -1 53 -3 25 -7 66
-10 93 -4 26 -8 58 -10 72 -2 14 -9 63 -15 110 -6 47 -13 96 -15 110 -2 14 -6
45 -9 70 -11 93 -22 178 -31 240 -2 14 -6 48 -10 75 -3 28 -10 85 -16 127 -17
129 -18 141 -24 193 -9 81 -10 82 -65 82 -27 0 -53 -3 -57 -6z m62 -288 c3
-40 8 -83 10 -95 3 -13 7 -51 11 -86 3 -35 7 -73 10 -85 2 -12 7 -53 10 -92
l6 -70 -57 3 -57 4 7 61 c4 34 9 78 11 97 2 19 5 53 8 75 2 22 8 72 11 110 4
39 9 77 10 85 2 8 4 28 4 44 2 50 9 24 16 -51z"/>
<path d="M1004 4664 l1 -608 25 -6 c14 -4 35 -4 47 1 21 7 21 12 21 213 -1
114 1 208 3 210 2 2 24 7 49 11 25 4 56 16 69 28 30 29 68 110 76 167 3 25 9
59 11 75 7 36 7 237 0 280 -14 99 -50 185 -88 212 -24 17 -46 21 -122 22 l-94
2 2 -607z m174 376 c12 -12 22 -24 23 -28 0 -4 3 -18 6 -32 10 -45 7 -184 -5
-220 -13 -39 -54 -68 -87 -63 -19 4 -20 11 -18 181 1 97 2 178 2 180 3 11 62
-2 79 -18z"/>
<path d="M1903 4663 l2 -608 37 -6 c20 -3 41 -3 46 0 5 3 9 110 8 236 l0 230
25 3 c26 3 28 0 55 -123 38 -175 77 -332 83 -338 9 -9 89 -12 97 -4 3 2 -11
67 -31 143 -19 77 -37 148 -39 159 -2 11 -16 66 -30 121 l-26 102 23 43 c21
38 38 94 53 164 2 11 4 67 5 126 0 189 -41 313 -116 345 -20 8 -68 14 -114 14
l-79 0 1 -607z m178 368 c16 -16 30 -40 30 -53 7 -139 -1 -191 -34 -226 -15
-16 -30 -22 -51 -20 l-30 3 -1 150 c0 83 1 156 3 163 7 22 53 13 83 -17z"/>
<path d="M2681 4818 c1 -468 5 -527 40 -640 21 -67 72 -137 101 -139 7 0 24
-2 36 -5 69 -13 140 72 167 201 3 11 8 31 12 45 3 14 8 242 10 508 l4 483 -48
-3 -48 -3 -1 -440 c-2 -441 -3 -464 -26 -520 -40 -99 -126 -59 -144 67 -4 24
-7 234 -8 468 l-1 425 -48 3 -48 3 2 -453z"/>
<path d="M3161 4660 l1 -610 42 0 43 0 -2 447 c-1 403 3 485 21 364 3 -20 7
-42 10 -50 2 -7 13 -57 24 -110 11 -54 22 -106 25 -117 2 -10 18 -84 35 -164
17 -80 38 -176 46 -215 8 -38 18 -81 21 -95 2 -14 6 -32 7 -40 3 -18 36 -26
87 -22 37 4 39 6 39 41 1 46 1 1151 0 1169 0 9 -13 12 -42 10 l-43 -3 1 -440
c0 -368 -2 -433 -12 -397 -7 23 -15 55 -18 70 -2 15 -18 92 -36 172 -17 80
-33 159 -36 175 -2 17 -9 44 -14 60 -5 17 -11 47 -15 69 -3 21 -7 41 -9 45 -2
3 -7 22 -10 41 -3 19 -14 73 -24 120 l-18 85 -62 3 -62 3 1 -611z"/>
<path d="M3920 5258 c-3 -93 0 -1201 2 -1204 2 -2 19 -4 37 -6 24 -2 31 -6 28
-18 -6 -18 -67 -248 -73 -270 -14 -57 -26 -108 -31 -125 -3 -11 -7 -32 -10
-48 -3 -15 -13 -31 -22 -35 -9 -4 -145 -7 -303 -7 l-288 0 0 -72 c0 -63 2 -73
18 -74 9 0 133 0 274 0 142 0 260 -4 262 -8 3 -4 1 -23 -4 -42 -5 -19 -11 -45
-14 -59 -3 -14 -23 -99 -46 -190 -23 -91 -46 -185 -51 -210 -6 -25 -12 -52
-14 -60 -8 -33 -85 -320 -105 -390 -11 -41 -23 -82 -25 -91 -2 -9 -18 -69 -35
-134 -17 -65 -33 -127 -35 -137 -2 -10 -13 -51 -23 -91 -11 -40 -30 -117 -43
-172 -13 -55 -24 -103 -25 -107 -1 -5 -2 -15 -3 -24 -1 -14 -2 -14 -17 0 -8 9
-21 16 -27 16 -26 0 -86 -47 -170 -134 l-89 -91 5 50 c3 28 22 115 42 195 20
80 39 156 41 170 4 22 40 191 49 230 5 22 96 402 101 425 3 11 7 31 10 45 3
14 8 34 11 45 3 11 7 29 9 40 1 11 6 38 11 60 18 78 -4 163 -43 166 -8 1 -20
2 -26 3 -19 3 -79 -29 -110 -59 -36 -33 -101 -121 -131 -177 -14 -24 -38 -68
-54 -98 -17 -30 -54 -107 -83 -170 -140 -307 -179 -388 -190 -395 -5 -3 -8 0
-5 7 5 14 11 48 21 108 3 19 7 46 10 60 2 14 7 41 10 60 3 19 10 61 15 93 36
211 25 394 -25 413 -24 9 -87 -27 -116 -68 -94 -130 -289 -636 -345 -898 -2
-8 -15 -49 -29 -90 -25 -75 -25 -75 -20 -25 6 62 11 100 18 143 3 17 8 44 11
60 3 15 7 36 9 47 52 238 68 313 72 327 10 44 15 66 24 108 10 48 10 48 34
155 9 39 17 82 19 97 1 15 5 30 8 33 3 3 2 28 -2 56 -14 87 -83 154 -135 130
-16 -7 -30 -35 -52 -103 -45 -137 -172 -564 -172 -578 0 -7 -27 -76 -59 -154
-33 -77 -78 -188 -101 -246 -22 -58 -45 -114 -50 -125 -5 -11 -25 -61 -45
-112 -57 -148 -85 -203 -111 -220 -70 -46 -80 113 -23 375 11 52 22 102 24
111 2 9 9 39 15 66 14 60 14 58 40 214 34 199 21 326 -35 347 -20 8 -19 26 4
51 34 36 109 177 126 234 35 123 -3 173 -130 175 l-60 0 -85 -86 c-169 -170
-367 -498 -468 -775 -41 -111 -82 -241 -82 -257 0 -5 -15 -30 -32 -56 -18 -26
-37 -55 -43 -64 -5 -10 -55 -88 -110 -173 -55 -86 -104 -164 -110 -173 -30
-49 -199 -297 -247 -362 -92 -123 -173 -200 -208 -200 -38 0 -84 81 -97 170
-23 152 -22 397 3 665 5 56 36 231 68 392 15 72 46 184 71 258 8 22 30 87 50
145 20 58 39 112 42 120 4 8 7 17 8 20 1 3 5 14 9 25 5 11 24 63 44 115 150
401 424 891 491 878 54 -11 51 -131 -12 -378 -48 -188 -62 -232 -168 -553 -38
-115 -71 -218 -73 -230 -3 -12 -16 -55 -31 -96 -14 -40 -28 -92 -31 -115 -3
-22 -7 -47 -10 -54 -7 -22 15 -52 39 -52 101 0 225 219 337 590 52 173 91 304
95 320 12 49 36 160 40 189 3 19 7 37 10 41 10 16 20 143 19 245 -1 115 -9
202 -23 238 -5 12 -9 27 -10 32 -5 40 -15 76 -22 81 -5 3 -9 12 -9 20 0 8 -10
30 -22 49 -74 114 -220 20 -400 -260 -126 -194 -236 -426 -357 -750 -29 -77
-55 -147 -59 -155 -3 -8 -6 -17 -7 -20 0 -3 -22 -68 -47 -145 -40 -122 -103
-330 -113 -375 -2 -8 -18 -76 -35 -150 -18 -74 -34 -148 -36 -165 -2 -16 -6
-41 -9 -55 -3 -14 -8 -45 -11 -70 -3 -25 -8 -56 -9 -70 -27 -189 -27 -702 0
-840 3 -13 7 -42 10 -63 19 -128 86 -306 133 -352 51 -52 67 -59 122 -60 68 0
118 23 184 85 51 48 148 188 211 305 119 221 159 303 194 398 42 114 66 163
55 116 -11 -52 -10 -235 3 -302 15 -85 49 -149 83 -157 29 -8 77 6 103 29 22
19 86 150 126 258 38 104 179 432 197 460 8 12 14 29 14 36 0 8 6 19 13 25 11
9 12 3 7 -36 -8 -69 1 -372 15 -462 2 -14 7 -54 10 -90 11 -99 33 -141 79
-145 31 -3 95 46 143 110 16 20 54 93 144 270 51 99 92 181 93 182 1 1 1 -76
1 -170 0 -237 13 -337 50 -373 14 -14 22 -15 56 -5 89 27 109 70 183 404 64
284 165 697 186 757 11 31 63 202 66 215 10 48 122 285 134 285 13 0 3 -110
-25 -262 -8 -45 -17 -96 -20 -113 -3 -16 -8 -41 -11 -55 -3 -14 -8 -36 -10
-50 -3 -14 -7 -36 -9 -50 -3 -14 -8 -38 -11 -55 -3 -16 -7 -41 -9 -55 -10 -53
-36 -206 -41 -235 -2 -16 -6 -41 -9 -55 -2 -14 -7 -43 -10 -65 -3 -22 -7 -51
-10 -65 -21 -119 -24 -304 -6 -338 30 -56 108 4 136 106 26 93 111 343 192
562 66 180 94 254 136 350 6 14 11 27 12 30 18 73 240 490 261 490 3 0 3 -4 0
-8 -3 -5 -7 -22 -10 -38 -3 -16 -37 -146 -75 -289 -88 -333 -148 -587 -167
-710 -1 -11 -9 -53 -17 -93 -8 -44 -14 -126 -13 -205 2 -141 17 -196 61 -223
33 -20 99 4 150 55 73 72 186 250 229 361 3 8 2 -21 -1 -65 -20 -236 -1 -379
50 -387 66 -11 254 138 387 308 38 49 120 164 120 170 0 3 8 18 19 32 33 47
128 244 164 342 39 105 95 310 103 380 3 24 7 47 9 50 4 7 17 170 20 250 1 56
-3 86 -29 191 -11 45 -52 113 -87 144 -51 46 -81 57 -152 57 l-58 0 5 31 c9
48 15 81 42 217 14 69 28 136 30 150 3 14 6 30 9 37 2 8 72 11 245 11 133 0
244 2 246 5 5 4 7 65 5 118 l-1 25 -221 0 c-121 -1 -225 2 -231 5 -6 4 -5 22
3 50 15 51 13 44 22 91 5 21 8 39 7 40 0 2 11 36 24 76 14 39 23 72 21 72 -2
0 2 15 10 33 7 18 13 61 12 96 -2 58 1 66 28 95 64 69 101 180 121 366 6 55 6
309 1 375 -16 188 -69 338 -140 395 -28 22 -42 25 -129 28 -77 3 -98 1 -98
-10z m200 -227 c29 -28 53 -96 66 -181 8 -54 7 -325 -1 -360 -3 -14 -8 -43
-11 -65 -6 -47 -37 -115 -63 -139 -22 -20 -88 -29 -93 -12 -4 9 -2 777 1 784
0 1 17 2 37 2 26 0 43 -8 64 -29z m-51 -2455 c28 -22 48 -85 45 -140 -7 -127
-101 -359 -262 -646 -118 -210 -201 -310 -258 -310 -52 0 -83 66 -58 126 8 19
12 34 9 34 -2 0 0 11 5 25 5 14 24 78 41 142 55 210 167 529 230 658 34 69 57
89 137 115 57 19 84 18 111 -4z m-2396 -62 c13 -4 13 -11 5 -37 -6 -18 -14
-34 -17 -37 -17 -13 -71 -109 -71 -125 0 -9 -11 -43 -24 -74 -68 -155 -235
-599 -251 -661 -7 -32 -128 -346 -152 -397 -14 -29 -29 -51 -33 -48 -14 9 5
175 35 305 3 14 8 36 10 50 2 14 9 45 16 70 6 25 13 56 15 70 3 14 9 39 15 56
5 17 12 42 14 54 6 31 86 281 96 300 4 8 45 92 90 185 90 189 133 255 181 278
36 18 49 20 71 11z"/>
<path d="M4810 4661 l0 -611 28 -1 c140 -5 188 11 235 77 74 106 108 268 109
529 1 107 -9 283 -16 294 -2 3 -7 22 -10 42 -8 53 -50 164 -76 202 -42 62 -65
72 -172 75 l-98 4 0 -611z m200 371 c50 -51 75 -182 73 -387 -2 -197 -24 -298
-77 -351 -25 -25 -40 -32 -67 -31 l-34 2 0 385 c-1 212 1 391 3 398 8 24 72
14 102 -16z"/>
<path d="M2576 3853 c-3 -4 -6 -194 -6 -423 l0 -416 61 3 c34 2 74 11 90 20
37 22 78 104 94 189 2 10 4 19 5 19 9 0 13 280 5 350 -11 98 -44 187 -84 225
-33 32 -43 35 -98 37 -34 1 -64 -1 -67 -4z m138 -162 c10 -11 18 -25 20 -33 1
-7 5 -18 9 -24 19 -32 25 -272 7 -348 -20 -88 -46 -122 -95 -121 -19 0 -20 8
-20 265 -1 146 1 268 3 273 7 14 59 7 76 -12z"/>
<path d="M2899 3851 c-1 -7 -1 -763 0 -806 l1 -30 86 1 c47 1 87 4 90 7 10 9
9 137 -1 138 -5 1 -32 2 -60 3 l-50 1 0 105 0 105 50 3 c27 2 52 7 55 12 5 8
5 68 1 126 -1 5 -18 11 -38 11 -21 1 -45 1 -53 2 -12 1 -15 18 -15 91 l0 90
56 0 57 0 3 38 c2 20 2 53 -1 73 l-5 36 -87 0 c-49 0 -88 -2 -89 -6z"/>
<path d="M4721 3542 c-49 -42 -80 -130 -88 -253 -6 -92 4 -127 49 -169 28 -25
42 -25 67 1 17 18 56 121 66 174 2 11 4 20 5 20 3 0 10 40 16 90 7 60 -7 100
-43 128 -34 27 -49 29 -72 9z"/>
<path d="M1342 3540 c-4 -3 -8 -35 -8 -72 l-2 -68 52 -1 c28 0 276 0 551 -1
l500 0 0 73 0 74 -543 0 c-299 0 -546 -2 -550 -5z"/>
<path d="M5144 3181 c-119 -73 -203 -275 -275 -664 -8 -44 -20 -68 -50 -103
-22 -25 -46 -62 -55 -82 -13 -31 -79 -216 -88 -247 -2 -5 -6 -17 -9 -25 -18
-48 -60 -168 -64 -185 -3 -11 -11 -33 -18 -50 -8 -16 -28 -66 -46 -110 -17
-44 -43 -102 -56 -129 -21 -42 -27 -47 -35 -33 -13 25 -5 106 37 347 3 14 7
36 10 50 2 14 16 86 31 160 14 74 27 142 29 150 2 8 20 79 40 157 47 184 58
261 43 301 -10 28 -25 44 -56 61 -73 39 -147 -142 -234 -574 -16 -82 -31 -159
-34 -170 -4 -20 -47 -301 -59 -385 -10 -66 -8 -258 3 -312 5 -27 20 -64 33
-83 20 -29 30 -35 61 -35 88 0 149 106 279 485 l58 170 1 -130 c1 -71 3 -143
5 -160 2 -16 7 -49 10 -73 3 -24 16 -67 29 -96 68 -153 177 -154 293 -3 24 30
76 132 98 192 35 93 101 336 131 480 23 115 33 145 93 260 70 136 193 424 213
500 9 33 9 48 1 56 -15 15 -63 -51 -110 -151 -77 -165 -116 -241 -121 -235 -3
2 -4 44 -3 92 9 312 2 413 -38 506 -36 84 -84 106 -147 68z m67 -240 c14 -65
19 -283 8 -350 -4 -25 -10 -68 -13 -96 -24 -204 -35 -238 -78 -243 -28 -3 -56
26 -63 65 -2 10 -4 18 -5 18 -6 0 -12 91 -12 195 -1 167 43 387 93 469 19 32
21 32 39 16 10 -9 24 -43 31 -74z m-97 -917 c-14 -89 -115 -397 -134 -409 -4
-3 -14 3 -21 12 -24 28 -20 385 4 409 3 3 27 8 53 10 27 3 50 7 53 9 2 3 15 5
28 5 21 0 22 -3 17 -36z"/>
</g>
</svg>
